<svg xmlns="http://www.w3.org/2000/svg" xmlns:xlink="http://www.w3.org/1999/xlink" id="Warstwa_1" x="0px" y="0px" width="138.8px" height="164.4px" viewBox="0 0 138.8 164.4" xml:space="preserve"><g>	<path d="M102.1,48.3c0-1.3-0.7-2-2.1-2H42.8c-1.4,0-2.1,0.7-2.1,2v6.1c0,0,0,0.1,0,0.1c0,0,0,0.1,0,0.1V114c0,1.3,0.7,2,2.1,2H100  c1.4,0,2.1-0.7,2.1-2V54.6c0,0,0-0.1,0-0.1c0,0,0-0.1,0-0.1V48.3L102.1,48.3z M100,47.6c0.4,0,0.7,0.2,0.7,0.6v6.1c0,0,0,0.1,0,0.1  c0,0,0,0.1,0,0.1v17.8c-0.1,0-0.2,0-0.3,0c-6.6,1.3-15.1,0.4-25.6-2.8c0,0,0,0,0,0c0,0-0.1,0-0.1,0l0,0c-0.9-0.3-1.8-0.7-2.8-1  c-1.2-0.4-2.3-0.8-3.4-1.1h0.2c1,0,1.4-0.5,1.4-1.4V55.9c0-0.9-0.5-1.4-1.4-1.4H48.8c-0.9,0-1.4,0.5-1.4,1.4v8.3h0  c-1.4,0-3.1,0.1-5.2,0.4v-9.9c0,0,0-0.1,0-0.1c0,0,0-0.1,0-0.1v-6.1c0-0.4,0.2-0.6,0.7-0.6H100L100,47.6z M100.7,73.8v1  c-1.7,2.1-4.3,5.2-7.8,9.4l-1.1,1.4l0,0c-0.4-0.2-0.9-0.5-1.4-0.7c-2-1-4.1-2-6.1-3c-0.6-0.3-1.2-0.6-1.9-0.9  c-0.2-0.1-0.4-0.2-0.5-0.3C76.4,78,71,75.3,65.5,72.5c-6.2-3.2-11.6-4.8-16.3-4.8c-0.2,0-0.3,0-0.5,0c-1.4,0-2.7,0.2-3.9,0.5  c-1,0.3-2,0.6-2.8,1v-3.3c2.2-0.2,3.9-0.3,5.3-0.4c5.4-0.1,11.5,0.7,18.3,2.6c1.8,0.5,3.7,1.1,5.6,1.8c0.9,0.3,1.8,0.6,2.8,1  c0,0,0,0,0.1,0c0,0,0.1,0,0.1,0h0C85.1,74.2,93.9,75.1,100.7,73.8C100.6,73.8,100.6,73.8,100.7,73.8L100.7,73.8z M88.3,90.1  C88.4,90.1,88.4,90.1,88.3,90.1L88.3,90.1L88.3,90.1L88.3,90.1z"></path>	<path d="M95.3,66.1V55.9c0-0.9-0.5-1.4-1.4-1.4H74.1c-1,0-1.4,0.5-1.4,1.4v10.2c0,0.9,0.5,1.4,1.4,1.4h19.8  C94.8,67.5,95.3,67,95.3,66.1L95.3,66.1z"></path></g><circle fill="none" stroke="#000000" stroke-width="1.5" cx="71.4" cy="81.1" r="58.8"></circle></svg>