<svg xmlns="http://www.w3.org/2000/svg" xmlns:xlink="http://www.w3.org/1999/xlink" id="Warstwa_1" x="0px" y="0px" width="138.8px" height="164.4px" viewBox="0 0 138.8 164.4" xml:space="preserve"><circle fill="none" stroke="#000000" stroke-width="1.5" cx="73.6" cy="82.6" r="58.8"></circle><g>	<path d="M102.6,109c-0.8-0.6-1.3-0.9-1.4-1.1c-3.9-3.2-6.9-5.7-8.9-7.3c-3.6-2.9-6.5-5.2-8.8-6.9l-12,1.2l-1.3-12.8  c0.2-0.1,0.5,0,0.9,0.2c0.2,0.1,0.6,0.3,1.1,0.7c5.9,3.4,12,4.8,18.1,4.5l-0.8-7.5c-3.4-0.1-6.3-0.5-8.6-1.1  c-2.5-0.7-4.8-1.7-7-3.3c-0.9-0.6-2.3-2-4.4-4c-1.7-1.8-3.2-3-4.5-3.6c-1.3-0.6-2.7-0.9-4.1-0.8c-1.3,0.1-2.6,0.5-3.8,1.2  c-1.1,0.7-2.1,1.6-2.8,2.7c-0.7,1.2-1.1,2.4-1.2,3.7c0,1.4,0.1,3.3,0.4,5.6c0.5,3.9,0.8,5.9,0.8,6c0.2,1.5,0.3,3.9,0.6,7.2  c0.2,2.8,0.7,4.9,1.2,6.2c0.8,1.9,2.1,3.5,3.8,4.7c1.8,1.3,3.8,1.9,6.1,1.9c1.8,0,4.1-0.2,7-0.5l7.3-0.9c0.5-0.1,1.3-0.2,2.4-0.4  c1-0.2,1.7-0.2,2.2-0.1c0.5,0.1,1.1,0.4,1.9,1.1c0.4,0.4,1.1,0.9,1.8,1.5c2.4,1.9,5.8,4.8,10.3,8.6l0.1,0c0.4-0.6,1-1.3,1.6-2  c1.1-1.3,1.7-2,1.9-2.2c0.7-0.8,1.1-1.3,1.1-1.3C103.7,109.9,103.3,109.6,102.6,109L102.6,109z"></path>	<path d="M57.9,49.7c-1.9,0.2-3.5,1-4.7,2.6c-1.2,1.5-1.7,3.2-1.5,5.1c0.2,1.9,1,3.5,2.6,4.7c1.5,1.2,3.2,1.7,5.1,1.5  c1.9-0.2,3.5-1,4.7-2.6c1.2-1.5,1.7-3.2,1.5-5.1c-0.2-1.9-1-3.5-2.6-4.7C61.5,50,59.8,49.5,57.9,49.7L57.9,49.7z"></path></g></svg>