<svg xmlns="http://www.w3.org/2000/svg" xmlns:xlink="http://www.w3.org/1999/xlink" id="Warstwa_1" x="0px" y="0px" width="138.8px" height="164.4px" viewBox="0 0 138.8 164.4" xml:space="preserve"><circle fill="none" stroke="#000000" stroke-width="1.5" cx="72.5" cy="82.8" r="58.8"></circle><g>	<path d="M107.3,80.5c0.6-0.3,1.1-0.8,1.3-1.4c0.3-0.6,0.2-1.3-0.1-1.9c-0.3-0.6-0.7-1-1.4-1.4l-11.9-4.2l13.6-6.4  c0.6-0.3,1-0.8,1.3-1.4c0.3-0.6,0.2-1.3-0.1-1.9c-0.3-0.6-0.8-1-1.4-1.3c-0.7-0.3-1.3-0.2-1.9,0.1l-13.6,6.4l4.2-11.9  c0.2-0.6,0.2-1.3-0.1-1.9c-0.3-0.6-0.8-1-1.4-1.3c-0.6-0.3-1.4-0.2-1.9,0.1c-0.6,0.3-1,0.8-1.3,1.4l-5.9,16.7l-8.2,3.9  c-1-1-2.2-1.7-3.4-2v-0.3c0-0.3,0-0.5-0.1-0.6v-8.5l12.5-12.5c0.5-0.5,0.7-1.1,0.7-1.8c0-0.7-0.3-1.3-0.7-1.8  c-0.5-0.5-1.2-0.8-1.8-0.8c-0.7,0-1.3,0.3-1.8,0.8l-9.1,8.9v-15c0-0.7-0.3-1.3-0.7-1.8c-0.5-0.5-1.1-0.7-1.8-0.7s-1.3,0.3-1.8,0.7  s-0.7,1-0.7,1.8v15.1l-9.1-9c-0.5-0.5-1.1-0.7-1.8-0.7c-0.6,0-1.3,0.3-1.8,0.8c-0.5,0.5-0.7,1.1-0.7,1.8c0,0.7,0.3,1.3,0.7,1.8  l12.7,12.6v9.1c-1.2,0.3-2.3,1-3.3,1.9l-8.2-3.9l-5.7-16.8c-0.3-0.6-0.6-1.2-1.3-1.4c-0.6-0.3-1.2-0.3-1.9-0.1  c-0.6,0.3-1.2,0.6-1.5,1.3c-0.3,0.6-0.4,1.2-0.1,1.9l4.1,11.8l-13.5-6.6c-0.6-0.3-1.4-0.3-1.9-0.1c-0.6,0.2-1.2,0.6-1.4,1.3  c-0.3,0.6-0.3,1.3-0.1,1.9c0.3,0.6,0.6,1.2,1.3,1.4l13.6,6.6l-12.1,4.2c-0.6,0.2-1.2,0.6-1.5,1.3c-0.3,0.6-0.3,1.2-0.1,1.9  c0.3,0.6,0.6,1.2,1.3,1.5c0.6,0.3,1.3,0.3,1.9,0.1L56,74.5l7.8,3.8c-0.1,0.6-0.2,1.2-0.2,1.8v6.1c0,0.6,0.1,1.3,0.3,2.1l-7.5,3.5  l-16.7-6c-0.7-0.3-1.3-0.3-1.9,0.1c-0.6,0.3-1,0.8-1.3,1.5c-0.3,0.6-0.3,1.3,0.1,1.9c0.3,0.7,0.8,1.1,1.4,1.3l11.8,4.2l-13.5,6.4  c-0.6,0.3-1,0.8-1.3,1.5c-0.3,0.6-0.2,1.3,0.1,1.9c0.3,0.6,0.8,1,1.4,1.3c0.6,0.3,1.3,0.2,1.9-0.1l13.6-6.5l-4.2,12  c-0.3,0.7-0.2,1.3,0.1,1.9c0.3,0.6,0.8,1,1.5,1.4c0.6,0.2,1.3,0.2,1.9-0.1c0.6-0.3,1-0.8,1.3-1.5l5.9-16.7l8.2-3.7  c0.8,0.8,1.9,1.4,3,1.7v8.6l-12.5,12.4c-0.5,0.5-0.8,1.1-0.8,1.8c0,0.7,0.3,1.3,0.7,1.8c0.5,0.5,1.1,0.8,1.8,0.8  c0.6,0,1.2-0.3,1.8-0.7l8.9-8.8v14.9c0,0.7,0.3,1.3,0.7,1.8l0.5,0.4c0.4,0.3,0.8,0.4,1.3,0.4c0.5,0,0.9-0.1,1.3-0.4l0.5-0.4  c0.5-0.5,0.7-1.1,0.7-1.8l0.1-15l8.9,9c0.5,0.5,1.2,0.7,1.8,0.7c0.7,0,1.3-0.3,1.8-0.7s0.7-1.1,0.7-1.8s-0.3-1.3-0.7-1.8  l-12.5-12.5l0.1-7.4c0.1-0.3,0.1-0.5,0.1-0.8v-0.4c1.3-0.4,2.4-1,3.5-2.1l8.6,4.1l5.7,16.8c0.3,0.6,0.6,1.2,1.3,1.5  c0.6,0.3,1.3,0.3,1.9,0.1c0.6-0.3,1.2-0.6,1.5-1.3c0.3-0.7,0.4-1.4,0.1-1.9l-4-11.8l13.4,6.5c0.6,0.3,1.3,0.4,1.9,0.1  c0.6-0.3,1.2-0.7,1.5-1.4c0.3-0.6,0.3-1.2,0.1-1.9c-0.2-0.6-0.6-1.2-1.3-1.5l-13.4-6.6l12-4.2c0.7-0.2,1.2-0.6,1.5-1.3  c0.3-0.6,0.4-1.3,0.1-1.9c-0.2-0.7-0.6-1.2-1.3-1.5c-0.6-0.3-1.2-0.3-1.9-0.1l-16.7,5.8l-8.3-4c0.1-0.6,0.2-1.2,0.2-1.7v-6  c0-0.6-0.1-1.2-0.2-1.7l7.8-3.9l16.7,6C106,80.8,106.6,80.8,107.3,80.5L107.3,80.5z"></path></g></svg>