<svg xmlns="http://www.w3.org/2000/svg" xmlns:xlink="http://www.w3.org/1999/xlink" id="Warstwa_1" x="0px" y="0px" width="138.8px" height="164.4px" viewBox="0 0 138.8 164.4" xml:space="preserve"><circle fill="none" stroke="#000000" stroke-width="1.5" cx="72.7" cy="82.5" r="58.7"></circle><g>	<path d="M113.3,82.4c-1.2-1.8-2.8-3.2-4.7-4.4l0-0.2c-1.4-4.6-2.8-9.3-4-14.1c-0.1,0-0.1,0-0.1,0c-0.3-0.7-0.9-1.2-1.6-1.5H88.4  v-5.5c-0.2-0.7-0.6-1.2-1.2-1.4H40.8c-2,1.2-3.7,2.7-5,4.6v22.5l0,0v16.2c0.2,1,0.7,1.6,1.6,1.8h0.2c2.2,0,4.6,0,7.3,0.1v0.1  l0.1,0.9c0,0.5,0.1,0.9,0.2,1.2l0.1,0.5c0.1,0.4,0.3,0.8,0.5,1.2l0,0c0,0.2,0.2,0.4,0.5,0.8c0.5,1,1.3,1.9,2.2,2.5  c0.5,0.5,1.1,0.8,1.8,1.1c1.2,0.5,2.5,0.8,3.9,0.8c1.3,0,2.5-0.2,3.7-0.7c0.8-0.4,1.5-0.8,2.1-1.4c0.2-0.2,0.4-0.3,0.6-0.5l0.3-0.3  l0.5-0.6c1.3-1.6,1.9-3.5,1.9-5.6v-0.2c8.5,0,16.2,0,23,0.1v0.1l0,0.4c0,0.7,0.1,1.2,0.2,1.7l0,0l0.1,0.5c0.1,0.4,0.2,0.8,0.5,1.2  l0,0c0.1,0.4,0.3,0.7,0.6,1.1c0.5,0.9,1.2,1.6,2,2.3c0.6,0.5,1.2,0.9,1.8,1.1c1.2,0.5,2.5,0.8,3.9,0.8c1.3,0,2.5-0.2,3.7-0.7  c0.7-0.3,1.4-0.8,2.2-1.4l0.9-0.9c1.7-1.9,2.5-3.9,2.3-5.8l0-0.2v-0.4h7.5c0.9-0.2,1.4-0.8,1.6-1.6v-0.2V82.7l0-0.1l-0.1-0.2  L113.3,82.4L113.3,82.4z M89.2,77.6c-0.4-0.5-0.7-1.2-0.8-2.1v-8.9h12.1l3.7,11.5H90.9C90.2,78.2,89.6,78,89.2,77.6L89.2,77.6z   M99.2,97.3c0.9,0.9,1.4,2.1,1.4,3.5v0c0,1.4-0.5,2.5-1.4,3.5l-0.2,0.2c-0.9,0.8-2,1.2-3.2,1.2c-1.4,0-2.6-0.5-3.5-1.4  c-0.5-0.5-0.8-1-1-1.4c-0.1-0.3-0.2-0.5-0.2-0.7l0-0.3c-0.1-0.4-0.1-0.7-0.1-1.1c0-0.5,0-0.9,0.1-1.2v0l0-0.2  c0.2-0.8,0.7-1.5,1.3-2.1c0.3-0.4,0.7-0.6,1-0.8v0h0l0.1,0h0c0.7-0.4,1.4-0.5,2.3-0.5c0.5,0,0.9,0,1.4,0.2c0.2,0.1,0.5,0.1,0.6,0.2  C98.3,96.5,98.8,96.8,99.2,97.3L99.2,97.3z M59.1,100.7L59.1,100.7c0,1.4-0.5,2.5-1.4,3.5l-0.2,0.2c-0.9,0.8-2,1.2-3.2,1.2  c-1.4,0-2.5-0.5-3.5-1.4c-0.5-0.5-0.8-1-1-1.4c-0.2-0.3-0.2-0.5-0.3-0.7l-0.1-0.3c-0.1-0.4-0.1-0.7-0.1-1.1c0-1.4,0.5-2.5,1.4-3.5  c0.4-0.3,0.7-0.6,1.2-0.9l0,0c0.7-0.4,1.4-0.5,2.3-0.5c0.5,0,0.9,0,1.4,0.2c0.2,0.1,0.5,0.1,0.6,0.2c0.5,0.2,1,0.6,1.5,1  C58.6,98.2,59.1,99.4,59.1,100.7L59.1,100.7z"></path></g></svg>