<svg xmlns="http://www.w3.org/2000/svg" xmlns:xlink="http://www.w3.org/1999/xlink" id="Warstwa_1" x="0px" y="0px" width="138.8px" height="164.4px" viewBox="0 0 138.8 164.4" xml:space="preserve"><circle fill="none" stroke="#000000" stroke-width="1.5" cx="72.2" cy="81.3" r="58.8"></circle><g>	<path d="M75.9,44.3c-0.6-0.8-1.3-1.8-2.1-2.8L73,40.6c-0.3-0.3-0.6-0.3-0.9-0.1c-0.3,0.2-0.9,1-1.9,2.6L47.8,77.5l-2.6,5.4  l-1.1,3.6c-0.3,1.1-0.5,2.3-0.6,3.6c-0.1,1.1-0.2,2.3-0.2,3.7c0.1,3.5,0.8,6.9,2,10.3l2.5,5.2l2.6,3.7l2.6,2.6  c0.1,0.2,0.3,0.3,0.6,0.4l0.6,0.5l1.8,1.3c1.2,0.8,2.3,1.3,3.3,1.8c0.5,0.2,1.2,0.5,2.2,0.9c1,0.4,1.9,0.7,2.8,0.9  c1.3,0.4,2.6,0.6,3.8,0.7c1.2,0.2,2.5,0.2,3.9,0.2l3.1-0.2c1.2-0.1,2.4-0.3,3.4-0.5c0.9-0.2,1.7-0.4,2.5-0.6  c1.3-0.4,2.4-0.8,3.3-1.2c1.1-0.5,2.2-1.1,3.4-1.8c1.8-1,3.3-2.3,4.8-3.6c0.9-0.9,1.7-1.8,2.4-2.6c1-1.2,1.9-2.5,2.7-3.9  c0.8-1.5,1.5-2.9,2.1-4.4c0.3-0.6,0.5-1.4,0.7-2.3c0.3-1.1,0.4-2.1,0.6-3c0.1-1.1,0.2-2.1,0.2-3.1v-1.6c0-1.4-0.2-2.8-0.4-4.3  c-0.2-1.3-0.6-2.7-1-4.1c-0.3-1-0.8-2.1-1.3-3.2l-2.3-4.6l-6.1-9.9l-4.8-6.9c-0.6-0.9-1-1.5-1.2-1.9l-6.3-11  C77.2,46.4,76.6,45.4,75.9,44.3L75.9,44.3z M92.1,89c0.4,0.5,0.6,1.1,0.6,1.8c0,1.2-0.2,2.4-0.4,3.8c-0.3,1.3-0.7,2.7-1.3,4  c-0.5,1.3-1.2,2.4-1.9,3.5c-0.8,1.1-1.7,2.1-2.7,3c-0.9,0.9-2.1,1.7-3.4,2.5c-1.1,0.6-2.3,1.3-3.6,1.8c-1.1,0.5-2.4,0.9-3.9,1.1  c-1.4,0.2-2.8,0.3-3.9,0.3c-0.8-0.1-1.3-0.4-1.6-1c-0.6-1.1-0.6-2.1-0.1-3.1c0.4-0.8,1.2-1.2,2.3-1.2c1.3,0,2.5-0.2,3.9-0.6  c1.4-0.4,2.8-1,4.1-1.9c1.3-0.9,2.3-1.9,3.2-3.1c0.8-1.2,1.6-2.4,2.1-3.7c0.6-1.5,1.1-2.8,1.4-4c0.3-0.9,0.5-1.8,0.8-2.6  c0.1-0.4,0.3-0.7,0.4-1c0.2-0.4,0.5-0.6,0.9-0.7c0.6,0,1.2,0.1,1.8,0.3C91.2,88.2,91.7,88.6,92.1,89L92.1,89z"></path></g></svg>