<svg xmlns="http://www.w3.org/2000/svg" xmlns:xlink="http://www.w3.org/1999/xlink" id="Warstwa_1" x="0px" y="0px" width="138.8px" height="164.4px" viewBox="0 0 138.8 164.4" xml:space="preserve"><circle fill="none" stroke="#000000" stroke-width="1.5" cx="71.8" cy="81.1" r="58.8"></circle><g>	<path d="M72,120.7c0.9,0,1.7-0.3,2.4-0.9l0.1-0.1c0.1,0,0.1-0.1,0.2-0.1c0.1-0.1,0.2-0.1,0.2-0.2l16.2-16.1l-5.2-5.3l-9.9,9.9V54.5  l9.9,9.9l5.2-5.3L74.8,42.9c-0.1-0.1-0.3-0.3-0.4-0.4h-0.1c-0.7-0.6-1.4-0.9-2.4-0.9c-1,0-1.9,0.4-2.6,1.1L52.5,59.6l5.2,5.2  L68.5,54v54.3L57.7,97.5l-5.2,5.2l16.9,16.9C70.1,120.3,71,120.6,72,120.7L72,120.7z"></path></g></svg>